<svg xmlns="http://www.w3.org/2000/svg" version="1.0" viewBox="0 0 40 30">
  <path fill="#e57e1f" d="M24.295 26.864c-5.094-5.719-1.585-15.673 2.657-19.522 3.615-3.28 9.605-5.96 10.17-5.024.897 1.49-2.636 2.547-5.293 4.938-3.316 3.586-4.43 5.198.16 7.221 4.918 2.22 5.012 4.391 5.17 7.153.398 6.954-7.89 10.207-12.864 5.234zm-19.172-.099C.028 21.046 3.538 11.09 7.78 7.243c3.614-3.28 9.604-5.96 10.17-5.024.897 1.49-2.636 2.547-5.293 4.938-3.316 3.586-4.43 5.198.159 7.221 4.918 2.22 5.013 4.391 5.17 7.153.399 6.954-7.89 10.207-12.863 5.234z"/>
</svg>
